# AST/ASF file generated using VICON BodyLanguage
# -----------------------------------------------
:version 1.10
:name VICON
:units
  mass 1.0
  length 0.45
  angle deg
:documentation
   .ast/.asf automatically generated from VICON data using
   VICON BodyBuilder and BodyLanguage model FoxedUp or BRILLIANT.MOD
:root
   order TX TY TZ RX RY RZ
   axis XYZ
   position 0 0 0  
   orientation 0 0 0 
:bonedata
  begin
     id 1 
     name lhipjoint
     direction 0.714689 -0.624256 0.315473 
     length 2.45343 
     axis 0 0 0  XYZ
  end
  begin
     id 2 
     name lfemur
     direction 0.34202 -0.939693 0  
     length 6.59069  
     axis 0 0 20  XYZ
    dof rx ry rz
    limits (-160.0 20.0)
           (-70.0 70.0)
           (-60.0 70.0)
  end
  begin
     id 3 
     name ltibia
     direction 0.34202 -0.939693 0   
     length 6.73476   
     axis 0 0 20   XYZ
    dof rx
    limits (-10.0 170.0)
  end
  begin
     id 4 
     name lfoot
     direction 0.0718085 -0.197292 0.977711   
     length 1.52607   
     axis -90 7.62852e-016 20   XYZ
    dof rx rz
    limits (-45.0 90.0)
           (-70.0 20.0)
  end
  begin
     id 5 
     name ltoes
     direction 1.53553e-011 -4.22024e-011 1   
     length 0.777832   
     axis -90 7.62852e-016 20   XYZ
    dof rx
    limits (-90.0 20.0)
  end
  begin
     id 6 
     name rhipjoint
     direction -0.727419 -0.612432 0.309497   
     length 2.50079  
     axis 0 0 0  XYZ 
  end
  begin
     id 7 
     name rfemur
     direction -0.34202 -0.939693 0   
     length 6.51665   
     axis 0 0 -20   XYZ
    dof rx ry rz
    limits (-160.0 20.0)
           (-70.0 70.0)
           (-70.0 60.0)
  end
  begin
     id 8 
     name rtibia
     direction -0.34202 -0.939693 0   
     length 6.48919   
     axis 0 0 -20   XYZ
    dof rx
    limits (-10.0 170.0)
 end
 begin
     id 9 
     name rfoot
     direction -0.112205 -0.308282 0.944655   
     length 1.68717  
     axis -90 -7.62852e-016 -20   XYZ
    dof rx rz
    limits (-45.0 90.0)
           (-20.0 70.0)
  end
  begin
     id 10 
     name rtoes
     direction -1.53583e-011 -4.21993e-011 1   
     length 0.846859   
     axis -90 -7.62852e-016 -20   XYZ
    dof rx
    limits (-90.0 20.0)
  end
  begin
     id 11 
     name lowerback
     direction -0.00119603 0.996364 -0.0851956   
     length 1.67242   
     axis 0 0 0   XYZ
    dof rx ry rz
    limits (-20.0 45.0)
           (-30.0 30.0)
           (-30.0 30.0)
  end
  begin
     id 12 
     name upperback
     direction -0.00531001 0.998318 0.0577248   
     length 1.64819   
     axis 0 0 0   XYZ
    dof rx ry rz
    limits (-20.0 45.0)
           (-30.0 30.0)
           (-30.0 30.0)
  end
  begin
     id 13 
     name thorax
     direction -0.00653676 0.995132 0.0983291   
     length 1.67429   
     axis 0 0 0   XYZ
    dof rx ry rz
    limits (-20.0 45.0)
           (-30.0 30.0)
           (-30.0 30.0)
  end
  begin
     id 14 
     name lowerneck
     direction 0.0141424 0.999886 0.00525412   
     length 1.59623   
     axis 0 0 0   XYZ
    dof rx ry rz
    limits (-20.0 45.0)
           (-30.0 30.0)
           (-30.0 30.0)
  end
  begin
     id 15 
     name upperneck
     direction -0.0640064 0.987178 -0.146232   
     length 1.59576   
     axis 0 0 0   XYZ
    dof rx ry rz
    limits (-20.0 45.0)
           (-30.0 30.0)
           (-30.0 30.0)
  end
  begin
     id 16
     name head
     direction -0.0222942 0.998496 -0.0500859  
     length 1.60959  
     axis 0 0 0   XYZ
    dof rx ry rz
    limits (-20.0 45.0)
           (-30.0 30.0)
           (-30.0 30.0)
  end
  begin
     id 17 
     name lclavicle
     direction 0.908549 0.392612 0.142806  
     length 2.80649  
     axis 0 0 0   XYZ
    dof ry rz
    limits (-20.0 10.0)
           (0.0 20.0)
  end
  begin
     id 18 
     name lhumerus
     direction 1 -4.48968e-011 1.08832e-028   
     length 4.2884   
     axis -180 -30 -90   XYZ
    dof rx ry rz
    limits (-60.0 90.0)
           (-90.0 90.0)
           (-90.0 90.0)
  end
  begin
     id 19
     name lradius
     direction 1 -4.48952e-011 -3.02642e-028   
     length 3.06552   
     axis -180 -30 -90   XYZ
    dof rx
    limits (-10.0 170.0)
  end
  begin
     id 20
     name lwrist
     direction 1 -4.49014e-011 1.58672e-027   
     length 1.53276   
     axis -1.65735e-015 90 90   XYZ
    dof ry
    limits (-180.0 0.0)
 end
  begin
     id 21 
     name lhand
     direction 1 -4.48928e-011 3.17344e-027   
     length 0.753045   
     axis -2.02492e-015 90 90   XYZ
    dof rx rz
    limits (-90.0 90.0)
           (-45.0 45.0)
  end
  begin
     id 22 
     name lfingers
     direction 1 -4.48958e-011 6.34687e-027   
     length 0.607124   
     axis -4.04985e-015 90 90   XYZ
    dof rx
    limits (0.0 90.0)
  end
  begin
     id 23
     name lthumb
     direction 0.707107 -6.34905e-011 0.707107   
     length 0.871712   
     axis -90 45 2.85299e-015   XYZ
    dof rx rz
    limits (-45.0 45.0)
           (-45.0 45.0)
  end
  begin
     id 24 
     name rclavicle
     direction -0.885098 0.45949 0.0739604   
     length 2.9478  
     axis 0 0 0   XYZ 
    dof ry rz
    limits (-10.0 20.0)
           (-20.0 0.0)
  end
  begin
     id 25 
     name rhumerus
     direction -1 -4.4898e-011 -2.61739e-027  
     length 4.52172   
     axis -180 30 90   XYZ
    dof rx ry rz
    limits (-90.0 60.0)
           (-90.0 90.0)
           (-90.0 90.0)
  end
  begin
     id 26 
     name rradius
     direction -1 -4.48945e-011 9.02552e-028   
     length 2.8914   
     axis -180 30 90   XYZ
    dof rx
    limits (-10.0 170.0)
  end
  begin
     id 27 
     name rwrist
     direction -1 -4.49018e-011 1.58672e-027   
     length 1.4457   
     axis -1.65735e-015 -90 -90   XYZ
    dof ry
    limits (-180.0 0.0)
  end
  begin
     id 28
     name rhand
     direction -1 -4.48825e-011 3.17344e-027   
     length 0.680541   
     axis -2.02492e-015 -90 -90   XYZ
    dof rx rz
    limits (-90.0 90.0)
           (-45.0 45.0)
  end
  begin
     id 29
     name rfingers
     direction -1 -4.49067e-011 6.34687e-027   
     length 0.54867   
     axis -4.04985e-015 -90 -90   XYZ
    dof rx
    limits (0.0 90.0)
  end
  begin
     id 30
     name rthumb
     direction -0.707107 -6.34833e-011 0.707107   
     length 0.787783   
     axis -90 -45 -2.85299e-015   XYZ
    dof rx rz
    limits (-45.0 45.0)
           (-45.0 45.0)
  end
:hierarchy
  begin
    root lhipjoint rhipjoint lowerback
    lhipjoint lfemur
    lfemur ltibia
    ltibia lfoot
    lfoot ltoes
    rhipjoint rfemur
    rfemur rtibia
    rtibia rfoot
    rfoot rtoes
    lowerback upperback
    upperback thorax
    thorax lowerneck lclavicle rclavicle
    lowerneck upperneck
    upperneck head
    lclavicle lhumerus
    lhumerus lradius
    lradius lwrist
    lwrist lhand lthumb
    lhand lfingers
    rclavicle rhumerus
    rhumerus rradius
    rradius rwrist
    rwrist rhand rthumb
    rhand rfingers
  end

#!OML:ASF E:\emotionWalksFemale\Project 1\Capture day 1\Session 1\Female1.ASF
:FULLY-SPECIFIED
:DEGREES
144
root 9.15671 15.5008 23.3057 179.375 -2.84984 -179.62
lowerback 8.56394 2.91588 2.96731
upperback -4.96171 4.20364 -0.0985202
thorax -9.89014 1.78703 -2.46736
lowerneck -3.91924 15.3311 7.33338
upperneck 3.24094 20.356 -5.63325
head 3.1709 10.0792 -2.01046
rclavicle -8.65956e-015 3.08116e-015
rhumerus -48.8335 14.0426 -99.1058
rradius 33.9954
rwrist 17.6211
rhand 0.940345 -55.9252
rfingers 7.12502
rthumb 26.4907 -84.0934
lclavicle -8.65956e-015 3.08116e-015
lhumerus -42.7488 -12.8934 94.9232
lradius 34.7471
lwrist -14.4306
lhand -2.00987 -37.1868
lfingers 7.12502
lthumb 23.6639 -8.62325
rfemur 2.31012 14.8137 26.4176
rtibia 14.2608
rfoot -16.096 -31.829
rtoes 3.93097
lfemur -5.72726 -20.6073 -22.3141
ltibia 23.0734
lfoot -18.4047 16.5282
ltoes -42.0001
145
root 9.15438 15.5009 23.3064 179.437 -2.69335 -179.61
lowerback 8.51708 2.92775 2.95167
upperback -4.95822 4.21535 -0.098361
thorax -9.8588 1.79458 -2.45718
lowerneck -4.47338 15.127 6.9431
upperneck 3.63288 20.0536 -5.07601
head 3.26789 9.92857 -1.74933
rclavicle -2.45126e-014 -9.93923e-017
rhumerus -49.3216 13.9868 -99.0434
rradius 34.6915
rwrist 17.3208
rhand 0.753045 -55.8482
rfingers 7.12502
rthumb 26.3115 -84.0434
lclavicle -2.45126e-014 -9.93923e-017
lhumerus -42.7411 -12.933 94.9504
lradius 34.7893
lwrist -14.4191
lhand -2.11033 -36.841
lfingers 7.12502
lthumb 23.5676 -8.26507
rfemur 2.2066 14.8178 26.379
rtibia 14.2827
rfoot -16.0351 -31.6646
rtoes 3.78958
lfemur -5.76522 -20.5696 -22.2886
ltibia 23.0385
lfoot -18.4869 16.4769
ltoes -41.6821
146
root 9.15301 15.5017 23.3064 179.435 -2.57224 -179.607
lowerback 8.42101 2.9179 2.83467
upperback -4.86984 4.19091 -0.0281775
thorax -9.71893 1.79956 -2.30411
lowerneck -4.96687 14.8598 6.64787
upperneck 3.96244 19.6776 -4.75701
head 3.37421 9.73741 -1.58781
rclavicle -1.18401e-014 5.36719e-015
rhumerus -49.3365 14.0211 -98.8681
rradius 34.9758
rwrist 17.2897
rhand -0.00307125 -55.4908
rfingers 7.12502
rthumb 25.5874 -83.792
lclavicle -1.18401e-014 5.36719e-015
lhumerus -42.6156 -12.9359 95.0543
lradius 34.7842
lwrist -14.2706
lhand -1.86918 -36.1919
lfingers 7.12502
lthumb 23.7989 -7.64588
rfemur 2.17628 14.9105 26.3731
rtibia 14.3028
rfoot -16.0324 -31.6109
rtoes 3.86617
lfemur -5.73236 -20.4828 -22.2948
ltibia 23.0014
lfoot -18.4952 16.4415
ltoes -41.7747
147
root 9.15209 15.5021 23.3045 179.388 -2.46313 -179.646
lowerback 8.28795 2.88775 2.60356
upperback -4.73934 4.12792 0.0825497
thorax -9.52378 1.79689 -2.03503
lowerneck -5.31355 14.5781 6.29035
upperneck 4.12475 19.2933 -4.48997
head 3.39703 9.54349 -1.45339
rclavicle -3.57315e-014 3.67752e-015
rhumerus -49.187 14.1015 -98.6238
rradius 35.2318
rwrist 17.0065
rhand -0.209596 -55.7047
rfingers 7.12502
rthumb 25.3896 -84.0341
lclavicle -3.57315e-014 3.67752e-015
lhumerus -42.5009 -12.7839 95.1123
lradius 34.8115
lwrist -14.1805
lhand -1.51859 -35.912
lfingers 7.12502
lthumb 24.1351 -7.41018
rfemur 2.24355 15.0497 26.3435
rtibia 14.2615
rfoot -16.0608 -31.615
rtoes 4.32552
lfemur -5.63964 -20.4024 -22.3692
ltibia 22.9924
lfoot -18.4358 16.5648
ltoes -41.8185
148
root 9.15131 15.5041 23.3036 179.378 -2.28234 -179.66
lowerback 8.23321 2.8906 2.48677
upperback -4.68422 4.11998 0.128096
thorax -9.44257 1.80562 -1.91524
lowerneck -5.56878 14.2187 5.82016
upperneck 4.18408 18.8025 -4.00997
head 3.32569 9.30603 -1.25819
rclavicle -3.75455e-014 -7.95139e-015
rhumerus -49.075 13.9997 -98.4013
rradius 35.6356
rwrist 16.2108
rhand 0.218244 -56.446
rfingers 7.12502
rthumb 25.7994 -84.7165
lclavicle -3.75455e-014 -7.95139e-015
lhumerus -42.5178 -12.6642 95.0727
lradius 34.8997
lwrist -14.2273
lhand -1.15906 -35.6778
lfingers 7.12502
lthumb 24.4797 -7.22216
rfemur 2.26086 15.1546 26.315
rtibia 14.2335
rfoot -16.0403 -31.5139
rtoes 4.37558
lfemur -5.5629 -20.3132 -22.4022
ltibia 22.9682
lfoot -18.565 16.5912
ltoes -41.0518
149
root 9.15092 15.5073 23.3049 179.482 -2.04271 -179.562
lowerback 8.18138 2.918 2.55141
upperback -4.71429 4.16216 0.139278
thorax -9.43946 1.82111 -1.94356
lowerneck -5.82086 13.8104 5.28256
upperneck 4.27354 18.2431 -3.34641
head 3.23847 9.04092 -1.00089
rclavicle -1.99654e-014 5.96354e-016
rhumerus -48.9246 13.7126 -98.1374
rradius 35.8179
rwrist 15.9968
rhand 0.0536569 -56.4091
rfingers 7.12502
rthumb 25.6418 -84.7025
lclavicle -1.99654e-014 5.96354e-016
lhumerus -42.5712 -12.6462 95.0253
lradius 34.9559
lwrist -14.2577
lhand -1.04254 -35.3154
lfingers 7.12502
lthumb 24.5914 -6.87498
rfemur 2.10673 15.1801 26.3642
rtibia 14.2494
rfoot -15.9113 -31.3283
rtoes 3.67518
lfemur -5.64154 -20.1766 -22.2587
ltibia 22.9469
lfoot -18.7771 16.605
ltoes -40.7664
150
root 9.14945 15.5094 23.3036 179.672 -1.65168 -179.527
lowerback 8.04435 2.99905 2.51709
upperback -4.77132 4.25937 0.145095
thorax -9.41942 1.86885 -1.92647
lowerneck -6.36651 13.1627 5.44977
upperneck 4.71486 17.3571 -3.49083
head 3.48958 8.58944 -1.0749
rclavicle -5.3001e-014 -2.23633e-014
rhumerus -48.7641 13.3043 -97.7643
rradius 35.7791
rwrist 16.603
rhand -0.758203 -55.7946
rfingers 7.12502
rthumb 24.864 -84.1977
lclavicle -5.3001e-014 -2.23633e-014
lhumerus -42.5975 -12.582 94.9861
lradius 34.9723
lwrist -14.3566
lhand -0.859522 -35.154
lfingers 7.12502
lthumb 24.7668 -6.73756
rfemur 1.86748 15.1865 26.2856
rtibia 14.2066
rfoot -15.6563 -31.0017
rtoes 3.12196
lfemur -5.81395 -20.0304 -22.1783
ltibia 22.9775
lfoot -18.8198 16.8297
ltoes -41.0726
151
root 9.14725 15.5039 23.3005 179.504 -1.82408 -179.546
lowerback 8.17971 2.86368 2.475
upperback -4.72773 4.08035 0.154468
thorax -9.46329 1.78582 -1.87258
lowerneck -6.57036 12.6645 4.95753
upperneck 4.81305 16.6828 -2.89298
head 3.41652 8.26777 -0.851114
rclavicle 2.51587e-014 7.25564e-015
rhumerus -48.3866 12.7943 -97.3011
rradius 35.4703
rwrist 17.7745
rhand -1.39371 -55.4727
rfingers 7.12502
rthumb 24.2548 -83.9586
lclavicle 2.51587e-014 7.25564e-015
lhumerus -42.6014 -12.3227 94.8639
lradius 34.9404
lwrist -14.6687
lhand -0.593953 -35.2302
lfingers 7.12502
lthumb 25.0213 -6.84897
rfemur 2.14624 15.13 26.3418
rtibia 14.115
rfoot -15.6595 -31.1559
rtoes 3.38421
lfemur -5.65811 -20.0956 -22.2634
ltibia 23.0482
lfoot -18.6803 16.8167
ltoes -41.3502
152
root 9.14792 15.5072 23.3052 179.64 -1.58052 -179.456
lowerback 8.15056 2.87028 2.43649
upperback -4.80318 4.08526 0.216037
thorax -9.53608 1.78832 -1.78711
lowerneck -6.64343 12.2724 4.00979
upperneck 4.82583 16.1649 -1.82147
head 3.21148 8.03576 -0.416455
rclavicle 4.85656e-014 2.78299e-015
rhumerus -47.5907 12.2817 -96.7918
rradius 34.7489
rwrist 18.9313
rhand -2.33438 -55.1262
rfingers 7.12502
rthumb 23.3526 -83.7296
lclavicle 4.85656e-014 2.78299e-015
lhumerus -42.5816 -11.978 94.7314
lradius 34.8108
lwrist -15.0692
lhand -0.528568 -35.3121
lfingers 7.12502
lthumb 25.084 -6.93954
rfemur 1.95166 15.2424 26.3733
rtibia 14.0722
rfoot -15.493 -31.0326
rtoes 3.15839
lfemur -5.84245 -19.925 -22.1045
ltibia 23.0867
lfoot -18.7112 16.8789
ltoes -41.2407
153
root 9.14674 15.511 23.3073 179.717 -1.43508 -179.41
lowerback 8.14154 2.85005 2.38485
upperback -4.8513 4.05373 0.271348
thorax -9.59271 1.77521 -1.69561
lowerneck -6.50892 11.8751 3.05231
upperneck 4.5829 15.6552 -0.858164
head 2.90688 7.80493 -0.0381498
rclavicle -2.03754e-015 1.03368e-014
rhumerus -47.4521 11.7502 -96.2216
rradius 34.8438
rwrist 19.7544
rhand -4.063 -54.6229
rfingers 7.12502
rthumb 21.6935 -83.4275
lclavicle -2.03754e-015 1.03368e-014
lhumerus -42.5757 -11.7612 94.6807
lradius 34.6712
lwrist -15.3437
lhand -0.380896 -35.3309
lfingers 7.12502
lthumb 25.2255 -6.97824
rfemur 1.86245 15.3072 26.3795
rtibia 14.0267
rfoot -15.5487 -30.9155
rtoes 3.06702
lfemur -5.94902 -19.8229 -22.03
ltibia 23.13
lfoot -18.8429 16.9202
ltoes -41.5726
154
root 9.14404 15.513 23.3048 179.742 -1.24569 -179.437
lowerback 8.1414 2.83852 2.30623
upperback -4.86284 4.02972 0.293239
thorax -9.61321 1.76857 -1.6252
lowerneck -6.61605 11.2827 2.50446
upperneck 4.5278 14.8794 -0.41924
head 2.8073 7.42595 0.13637
rclavicle -4.96962e-016 -3.37934e-015
rhumerus -47.2936 11.1081 -95.5613
rradius 35.1683
rwrist 20.7328
rhand -5.32054 -54.6648
rfingers 7.12502
rthumb 20.4854 -83.6041
lclavicle -4.96962e-016 -3.37934e-015
lhumerus -42.624 -11.6375 94.6438
lradius 34.7383
lwrist -15.4545
lhand 0.118365 -35.0465
lfingers 7.12502
lthumb 25.7037 -6.7621
rfemur 1.86067 15.3325 26.3164
rtibia 13.975
rfoot -15.5533 -30.7563
rtoes 2.64667
lfemur -5.95567 -19.7275 -22.0781
ltibia 23.1715
lfoot -18.8973 17.057
ltoes -41.9072
155
root 9.14127 15.5119 23.303 179.728 -1.04639 -179.429
lowerback 8.20517 2.8216 2.3004
upperback -4.84957 4.00945 0.296354
thorax -9.63784 1.7592 -1.61885
lowerneck -7.55854 10.3731 2.87628
upperneck 5.35345 13.6542 -1.06124
head 3.33584 6.79022 -0.0911627
rclavicle -2.76808e-014 5.96354e-016
rhumerus -47.0759 10.3408 -94.8686
rradius 35.3181
rwrist 21.8793
rhand -6.02887 -55.1866
rfingers 7.12502
rthumb 19.8046 -84.1976
lclavicle -2.76808e-014 5.96354e-016
lhumerus -42.6604 -11.3797 94.4754
lradius 34.8828
lwrist -15.712
lhand 0.72697 -34.8092
lfingers 7.12502
lthumb 26.2865 -6.61037
rfemur 1.86312 15.3597 26.3005
rtibia 13.9874
rfoot -15.4619 -30.5759
rtoes 2.47444
lfemur -5.9048 -19.6406 -22.0962
ltibia 23.1738
lfoot -19.0217 17.1336
ltoes -41.5996
156
root 9.1376 15.5092 23.3024 179.699 -0.853945 -179.452
lowerback 8.29206 2.80405 2.28393
upperback -4.83356 3.98625 0.274086
thorax -9.67207 1.74829 -1.63439
lowerneck -7.94062 9.77728 1.91429
upperneck 5.50297 12.8789 -0.100732
head 3.2966 6.42374 0.33671
rclavicle 1.56294e-014 1.19271e-015
rhumerus -46.8713 9.573 -94.2003
rradius 35.3295
rwrist 23.0891
rhand -6.94795 -55.7965
rfingers 7.12502
rthumb 18.9209 -84.8962
lclavicle 1.56294e-014 1.19271e-015
lhumerus -42.6376 -10.9796 94.1951
lradius 34.8711
lwrist -16.0835
lhand 0.905921 -35.0353
lfingers 7.12502
lthumb 26.4578 -6.86217
rfemur 1.86071 15.3981 26.2443
rtibia 14.0005
rfoot -15.372 -30.433
rtoes 2.75082
lfemur -5.82707 -19.6093 -22.1606
ltibia 23.163
lfoot -19.1482 17.2318
ltoes -41.1943
157
root 9.13495 15.5081 23.3008 179.703 -0.685419 -179.495
lowerback 8.34384 2.76852 2.23648
upperback -4.84907 3.93204 0.246387
thorax -9.72304 1.72283 -1.63232
lowerneck -7.79979 9.13833 1.6345
upperneck 5.35814 12.0311 0.223999
head 3.16944 6.0128 0.420083
rclavicle -1.11816e-014 -7.7526e-015
rhumerus -46.7285 8.87396 -93.6067
rradius 35.4628
rwrist 24.1516
rhand -7.92942 -56.4277
rfingers 7.12502
rthumb 17.9767 -85.6169
lclavicle -1.11816e-014 -7.7526e-015
lhumerus -42.6715 -10.5975 93.8779
lradius 34.8454
lwrist -16.3562
lhand 0.814748 -35.5041
lfingers 7.12502
lthumb 26.3705 -7.31783
rfemur 1.84981 15.4755 26.1737
rtibia 13.9717
rfoot -15.32 -30.386
rtoes 2.7824
lfemur -5.79746 -19.5758 -22.231
ltibia 23.174
lfoot -19.1575 17.3197
ltoes -41.0577
158
root 9.13387 15.5102 23.2975 179.735 -0.5581 -179.481
lowerback 8.34125 2.69557 2.18385
upperback -4.87687 3.82798 0.270617
thorax -9.76125 1.67499 -1.56116
lowerneck -7.86813 8.46786 0.978661
upperneck 5.42434 11.1549 0.888566
head 3.11532 5.59157 0.69054
rclavicle -2.21645e-014 -7.7526e-015
rhumerus -46.6316 8.2709 -93.0022
rradius 35.6627
rwrist 25.0438
rhand -12.0292 -55.7355
rfingers 7.12502
rthumb 14.0289 -85.242
lclavicle -2.21645e-014 -7.7526e-015
lhumerus -42.7817 -10.1768 93.5247
lradius 34.9495
lwrist -16.5714
lhand 1.27825 -35.9051
lfingers 7.12502
lthumb 26.8141 -7.78603
rfemur 1.81651 15.5613 26.1782
rtibia 13.9651
rfoot -15.2218 -30.3662
rtoes 2.61569
lfemur -5.79647 -19.4981 -22.2138
ltibia 23.184
lfoot -19.2031 17.2828
ltoes -40.8138
